#!OML:ASF H:\Punching\Project 1\Capture day 1\Session 1\female.ASF
:FULLY-SPECIFIED
:DEGREES
3810
root -12.8581 15.7143 -1.01351 167.29 86.9834 -206.186
lowerback -5.09243 -0.468442 -1.32025
upperback -6.00747 -0.410599 -0.161294
thorax -3.33033 -0.0783864 0.559745
lowerneck -12.7116 3.38302 11.7548
upperneck 39.6084 6.32119 -6.37608
head 17.2093 4.21685 -3.65003
rclavicle 4.06111e-015 5.06901e-015
rhumerus -37.5416 0.245719 -76.7207
rradius 44.0698
rwrist -0.609615
rhand -14.9556 -4.78641
rfingers 7.12502
rthumb 11.2076 -34.4671
lclavicle 4.06111e-015 5.06901e-015
lhumerus -44.8482 6.56742 74.2776
lradius 38.809
lwrist -15.4627
lhand -6.52175 13.5045
lfingers 7.12502
lthumb 19.3307 42.5637
rfemur -36.5037 -2.14448 21.1442
rtibia 53.972
rfoot -21.9444 -16.7791
rtoes -2.28768
lfemur -9.86342 -6.54441 -30.1263
ltibia 17.2675
lfoot -17.2038 10.3666
ltoes 10.6611
3811
root -12.7952 15.7105 -1.01813 170.537 86.4238 -202.887
lowerback -4.93179 -0.503204 -1.46531
upperback -5.96288 -0.458873 -0.174094
thorax -3.37183 -0.098295 0.62761
lowerneck -12.8265 3.24121 11.6179
upperneck 39.575 6.04208 -6.19855
head 17.1642 4.09975 -3.59318
rclavicle -7.58876e-015 5.96354e-016
rhumerus -37.6006 0.0879213 -76.5969
rradius 43.6949
rwrist -0.551842
rhand -14.9803 -4.85249
rfingers 7.12502
rthumb 11.1838 -34.5344
lclavicle -7.58876e-015 5.96354e-016
lhumerus -44.7357 6.50704 74.7329
lradius 39.1293
lwrist -15.4739
lhand -6.50806 13.4644
lfingers 7.12502
lthumb 19.3439 42.5223
rfemur -37.0724 -1.75134 21.1889
rtibia 52.8427
rfoot -22.0488 -16.4753
rtoes -2.31751
lfemur -9.31362 -6.73785 -30.1475
ltibia 16.8158
lfoot -17.1306 10.0571
ltoes 10.6198
3812
root -12.7308 15.7073 -1.02321 172.814 85.8588 -200.559
lowerback -4.77737 -0.542192 -1.59439
upperback -5.91729 -0.513643 -0.193934
thorax -3.40869 -0.122251 0.679296
lowerneck -12.9416 3.10579 11.4901
upperneck 39.5404 5.76848 -6.01654
head 17.1213 3.98676 -3.53496
rclavicle -1.25793e-015 -3.52843e-015
rhumerus -37.6544 -0.0736626 -76.4757
rradius 43.2752
rwrist -0.522169
rhand -15.0433 -4.93552
rfingers 7.12502
rthumb 11.123 -34.6207
lclavicle -1.25793e-015 -3.52843e-015
lhumerus -44.6405 6.46073 75.1726
lradius 39.4517
lwrist -15.4907
lhand -6.46228 13.4076
lfingers 7.12502
lthumb 19.3879 42.4611
rfemur -37.6018 -1.38667 21.2088
rtibia 51.6148
rfoot -22.1285 -16.1614
rtoes -2.34313
lfemur -8.71427 -6.93734 -30.1746
ltibia 16.2718
lfoot -17.0075 9.76332
ltoes 10.5317
3813
root -12.665 15.705 -1.02885 174.6 85.2964 -198.731
lowerback -4.63972 -0.580438 -1.69626
upperback -5.87386 -0.567819 -0.215049
thorax -3.43854 -0.14691 0.714524
lowerneck -13.0539 2.97003 11.3613
upperneck 39.506 5.4955 -5.83358
head 17.0795 3.87428 -3.47618
rclavicle 5.70729e-017 -1.63997e-015
rhumerus -37.708 -0.247744 -76.3443
rradius 42.8127
rwrist -0.500477
rhand -15.139 -5.0467
rfingers 7.12502
rthumb 11.0307 -34.7369
lclavicle 5.70729e-017 -1.63997e-015
lhumerus -44.5591 6.41946 75.6075
lradius 39.7741
lwrist -15.4942
lhand -6.38664 13.3556
lfingers 7.12502
lthumb 19.4606 42.4018
rfemur -38.0982 -1.05327 21.2177
rtibia 50.2922
rfoot -22.18 -15.8443
rtoes -2.39404
lfemur -8.07952 -7.15033 -30.193
ltibia 15.6492
lfoot -16.8444 9.48403
ltoes 10.4798
